<svg height="500" width="500" xmlns="http://www.w3.org/2000/svg"><g fill-opacity=".6"><path d="m254.8 5.7-.2.1v19.8l207.1 72.7c-1.8 43.6-74 292.2-207.1 382.2v19.5c.1.1.2.1.3.2 144.7-97.8 223.2-368 225.1-415.4z" fill="#2b4e9d"/><path d="m40.5 98.2 214-72.8h.1v-19.7l-232.4 79.1c1.9 47.3 88 317.2 232.5 415.2v-19.6c-133.1-89.9-212.4-338.6-214.2-382.2z" fill="#e52420"/><path d="m209 172.3h-91.6v91.6c101.2 0 183.2-82 183.2-183.2h-91.6z" fill="#2b4e9d"/><path d="m300.6 263.9h91.6v-91.6c-101.2 0-183.2 82-183.2 183.2h91.6z" fill="#e52420"/></g><path d="m254.9 0-.2.1v19.8l207.1 72.7c-1.8 43.6-74 292.2-207.1 382.2v19.6c.1.1.2.1.3.2 144.7-97.8 223.2-368 225.1-415.4z" fill="#2b4e9d"/><path d="m40.6 92.6 214-72.8h.1v-19.7l-232.4 79c1.9 47.3 88 317.2 232.5 415.2v-19.6c-133.2-89.9-212.4-338.5-214.2-382.1z" fill="#e52420"/><path d="m209.1 166.7h-91.6v91.6c101.2 0 183.2-82 183.2-183.2h-91.6z" fill="#2b4e9d"/><path d="m300.7 258.3h91.6v-91.6c-101.2 0-183.2 82-183.2 183.2h91.6z" fill="#e52420"/></svg>