<?xml version="1.0" encoding="utf-8"?>
<!-- Generator: Adobe Illustrator 19.0.0, SVG Export Plug-In . SVG Version: 6.00 Build 0)  -->
<svg version="1.1" id="Ebene_1" xmlns="http://www.w3.org/2000/svg" xmlns:xlink="http://www.w3.org/1999/xlink" x="0px" y="0px"
	 viewBox="0 0 1162 396.3" style="enable-background:new 0 0 1162 396.3;" xml:space="preserve">
<style type="text/css">
	.st0{display:none;fill:#6DB52D;}
	.st1{opacity:0.6;}
	.st2{fill:#2B4E9D;}
	.st3{fill:#E52420;}
	.st4{display:none;fill:#FFFFFF;}
</style>
<polygon id="XMLID_2_" class="st0" points="260.6,144.4 240.6,144.4 240.6,124.4 250.5,124.4 260.6,124.4 "/>
<g id="XMLID_3_">
	<g id="XMLID_54_">
		<g id="XMLID_5_">
			<g id="XMLID_13_" class="st1">
				<g id="XMLID_22_">
					<path id="XMLID_25_" class="st2" d="M252.5,4.5l-0.1,0v15.7l164.1,57.6c-1.4,34.5-58.6,231.5-164.1,302.8v15.5
						c0.1,0.1,0.2,0.1,0.2,0.2C367.3,318.8,429.5,104.7,431,67.2L252.5,4.5z"/>
					<path id="XMLID_24_" class="st3" d="M82.8,77.8l169.5-57.7l0.1,0V4.5L68.2,67.2c1.5,37.5,69.7,251.3,184.2,328.9v-15.5
						C146.9,309.3,84.2,112.4,82.8,77.8z"/>
					<path id="XMLID_23_" class="st4" d="M82.8,77.8c1.4,34.5,64.2,231.5,169.6,302.8c105.5-71.3,162.7-268.2,164.1-302.8
						L252.4,20.2l-0.1,0L82.8,77.8z"/>
				</g>
				<g id="XMLID_14_">
					<path id="XMLID_17_" class="st2" d="M216.2,136.5h-72.6v72.6c80.1,0,145.1-65,145.1-145.1h-72.6V136.5z"/>
					<path id="XMLID_15_" class="st3" d="M288.8,209.1h72.6v-72.6c-80.1,0-145.1,65-145.1,145.1h72.6V209.1z"/>
				</g>
			</g>
			<g id="XMLID_9_">
				<g id="XMLID_18_">
					<path id="XMLID_19_" class="st2" d="M252.6,0l-0.1,0v15.7l164.1,57.6c-1.4,34.5-58.6,231.5-164.1,302.8v15.5
						c0.1,0.1,0.2,0.1,0.2,0.2C367.3,314.3,429.5,100.2,431,62.7L252.6,0z"/>
					<path id="XMLID_20_" class="st3" d="M82.8,73.3l169.5-57.7l0.1,0V0L68.3,62.7C69.8,100.2,138,314,252.4,391.6v-15.5
						C147,304.8,84.2,107.9,82.8,73.3z"/>
					<path id="XMLID_21_" class="st4" d="M82.8,73.3c1.4,34.5,64.2,231.5,169.6,302.8c105.5-71.3,162.7-268.2,164.1-302.8
						L252.4,15.7l-0.1,0L82.8,73.3z"/>
				</g>
				<g id="XMLID_10_">
					<path id="XMLID_11_" class="st2" d="M216.3,132h-72.6v72.6c80.1,0,145.1-65,145.1-145.1h-72.6V132z"/>
					<path id="XMLID_12_" class="st3" d="M288.8,204.6h72.6V132c-80.1,0-145.1,65-145.1,145.1h72.6V204.6z"/>
				</g>
			</g>
		</g>
	</g>
	<g id="XMLID_4_">
		<g id="XMLID_45_" class="st1">
			<path id="XMLID_46_" class="st2" d="M488.2,113.8c6.4-1.1,14.8-2,25.5-2c13.2,0,22.8,3.1,28.9,8.6c5.7,4.9,9,12.4,9,21.6
				c0,9.3-2.8,16.7-8,22c-7,7.5-18.5,11.3-31.5,11.3c-4,0-7.6-0.2-10.7-0.9v41.3h-13.3V113.8z M501.5,163.5c2.9,0.8,6.6,1.1,11,1.1
				c16.1,0,25.8-7.8,25.8-22c0-13.6-9.6-20.2-24.3-20.2c-5.8,0-10.2,0.5-12.5,1.1V163.5z"/>
			<path id="XMLID_49_" class="st2" d="M566.6,164.7c0-8.7-0.2-16.2-0.6-23.1h11.8l0.5,14.5h0.6c3.4-9.9,11.5-16.2,20.5-16.2
				c1.5,0,2.6,0.2,3.8,0.5v12.7c-1.4-0.3-2.8-0.5-4.6-0.5c-9.5,0-16.2,7.2-18,17.3c-0.3,1.8-0.6,4-0.6,6.3v39.5h-13.3V164.7z"/>
			<path id="XMLID_51_" class="st2" d="M622.6,181c0.3,18.2,11.9,25.7,25.4,25.7c9.6,0,15.4-1.7,20.5-3.8l2.3,9.6
				c-4.7,2.1-12.8,4.6-24.6,4.6c-22.8,0-36.4-15-36.4-37.3c0-22.3,13.2-39.9,34.7-39.9c24.2,0,30.6,21.3,30.6,34.9
				c0,2.8-0.3,4.9-0.5,6.3H622.6z M662,171.4c0.2-8.6-3.5-21.9-18.7-21.9c-13.6,0-19.6,12.5-20.6,21.9H662z"/>
			<path id="XMLID_56_" class="st2" d="M696.9,141.6l14.5,41.6c2.4,6.7,4.4,12.8,6,19h0.5c1.7-6.1,3.8-12.2,6.3-19l14.4-41.6h14.1
				l-29.1,74h-12.8l-28.1-74H696.9z"/>
			<path id="XMLID_58_" class="st3" d="M779,112.5v43.1h49.9v-43.1h13.5v103.1h-13.5v-48.3H779v48.3h-13.3V112.5H779z"/>
			<path id="XMLID_60_" class="st3" d="M872.5,181c0.3,18.2,11.9,25.7,25.4,25.7c9.6,0,15.4-1.7,20.5-3.8l2.3,9.6
				c-4.7,2.1-12.8,4.6-24.6,4.6c-22.8,0-36.4-15-36.4-37.3c0-22.3,13.2-39.9,34.7-39.9c24.2,0,30.6,21.3,30.6,34.9
				c0,2.8-0.3,4.9-0.5,6.3H872.5z M911.9,171.4c0.2-8.6-3.5-21.9-18.7-21.9c-13.6,0-19.6,12.5-20.6,21.9H911.9z"/>
			<path id="XMLID_63_" class="st3" d="M941.6,107H955v108.6h-13.5V107z"/>
			<path id="XMLID_65_" class="st3" d="M977.7,165.8c0-9.5-0.3-17.1-0.6-24.2h12.1l0.6,12.7h0.3c5.5-9,14.2-14.4,26.3-14.4
				c17.9,0,31.3,15.1,31.3,37.6c0,26.6-16.2,39.8-33.6,39.8c-9.8,0-18.4-4.3-22.8-11.6H991v40.2h-13.3V165.8z M991,185.5
				c0,2,0.3,3.8,0.6,5.5c2.4,9.3,10.6,15.7,20.2,15.7c14.2,0,22.5-11.6,22.5-28.6c0-14.8-7.8-27.5-22-27.5
				c-9.2,0-17.7,6.6-20.3,16.7c-0.5,1.7-0.9,3.7-0.9,5.5V185.5z"/>
		</g>
		<g id="XMLID_16_">
			<path id="XMLID_26_" class="st2" d="M488.2,106.9c6.4-1.1,14.8-2,25.5-2c13.2,0,22.8,3.1,28.9,8.6c5.7,4.9,9,12.4,9,21.6
				c0,9.3-2.8,16.7-8,22c-7,7.5-18.5,11.3-31.5,11.3c-4,0-7.6-0.2-10.7-0.9v41.3h-13.3V106.9z M501.5,156.6c2.9,0.8,6.6,1.1,11,1.1
				c16.1,0,25.8-7.8,25.8-22c0-13.6-9.6-20.2-24.3-20.2c-5.8,0-10.2,0.5-12.5,1.1V156.6z"/>
			<path id="XMLID_29_" class="st2" d="M566.6,157.8c0-8.7-0.2-16.2-0.6-23.1h11.8l0.5,14.5h0.6c3.4-9.9,11.5-16.2,20.5-16.2
				c1.5,0,2.6,0.2,3.8,0.5v12.7c-1.4-0.3-2.8-0.5-4.6-0.5c-9.5,0-16.2,7.2-18,17.3c-0.3,1.8-0.6,4-0.6,6.3v39.5h-13.3V157.8z"/>
			<path id="XMLID_31_" class="st2" d="M622.6,174.2c0.3,18.2,11.9,25.7,25.4,25.7c9.6,0,15.4-1.7,20.5-3.8l2.3,9.6
				c-4.7,2.1-12.8,4.6-24.6,4.6c-22.8,0-36.4-15-36.4-37.3c0-22.3,13.2-39.9,34.7-39.9c24.2,0,30.6,21.3,30.6,34.9
				c0,2.8-0.3,4.9-0.5,6.3H622.6z M662,164.5c0.2-8.6-3.5-21.9-18.7-21.9c-13.6,0-19.6,12.5-20.6,21.9H662z"/>
			<path id="XMLID_34_" class="st2" d="M696.9,134.7l14.5,41.6c2.4,6.7,4.4,12.8,6,19h0.5c1.7-6.1,3.8-12.2,6.3-19l14.4-41.6h14.1
				l-29.1,74h-12.8l-28.1-74H696.9z"/>
			<path id="XMLID_36_" class="st3" d="M779,105.7v43.1h49.9v-43.1h13.5v103.1h-13.5v-48.3H779v48.3h-13.3V105.7H779z"/>
			<path id="XMLID_38_" class="st3" d="M872.5,174.2c0.3,18.2,11.9,25.7,25.4,25.7c9.6,0,15.4-1.7,20.5-3.8l2.3,9.6
				c-4.7,2.1-12.8,4.6-24.6,4.6c-22.8,0-36.4-15-36.4-37.3c0-22.3,13.2-39.9,34.7-39.9c24.2,0,30.6,21.3,30.6,34.9
				c0,2.8-0.3,4.9-0.5,6.3H872.5z M911.9,164.5c0.2-8.6-3.5-21.9-18.7-21.9c-13.6,0-19.6,12.5-20.6,21.9H911.9z"/>
			<path id="XMLID_41_" class="st3" d="M941.6,100.2H955v108.6h-13.5V100.2z"/>
			<path id="XMLID_43_" class="st3" d="M977.7,158.9c0-9.5-0.3-17.1-0.6-24.2h12.1l0.6,12.7h0.3c5.5-9,14.2-14.4,26.3-14.4
				c17.9,0,31.3,15.1,31.3,37.6c0,26.6-16.2,39.8-33.6,39.8c-9.8,0-18.4-4.3-22.8-11.6H991V239h-13.3V158.9z M991,178.6
				c0,2,0.3,3.8,0.6,5.5c2.4,9.3,10.6,15.7,20.2,15.7c14.2,0,22.5-11.6,22.5-28.6c0-14.8-7.8-27.5-22-27.5
				c-9.2,0-17.7,6.6-20.3,16.7c-0.5,1.7-0.9,3.7-0.9,5.5V178.6z"/>
		</g>
		<g id="XMLID_95_">
			<path id="XMLID_96_" d="M488.3,270.9c2-0.4,4.8-0.6,8.6-0.6c4.1,0,7.2,0.9,9.1,2.5c1.8,1.5,3,3.9,3,6.8c0,2.9-0.9,5.4-2.7,7
				c-2.2,2.2-5.8,3.3-9.8,3.3c-1.1,0-2,0-2.8-0.2v11.7h-5.6V270.9z M493.9,285.3c0.7,0.2,1.6,0.2,2.8,0.2c4.2,0,6.8-2.1,6.8-5.7
				c0-3.4-2.4-5.3-6.3-5.3c-1.6,0-2.7,0.1-3.3,0.3V285.3z"/>
			<path id="XMLID_99_" d="M513.2,286.3c0-3,0-5.2-0.2-7.2h4.9l0.2,4.3h0.2c1.1-3.2,3.7-4.8,6.1-4.8c0.5,0,0.9,0,1.3,0.1v5.3
				c-0.5-0.1-1-0.2-1.7-0.2c-2.7,0-4.5,1.7-5,4.3c-0.1,0.5-0.2,1.1-0.2,1.7v11.6h-5.6V286.3z"/>
			<path id="XMLID_101_" d="M541.7,301.4l-0.4-2.5h-0.1c-1.4,1.7-3.7,3-6.6,3c-4.5,0-7-3.3-7-6.7c0-5.6,5-8.5,13.3-8.4v-0.4
				c0-1.5-0.6-3.9-4.5-3.9c-2.2,0-4.5,0.7-6,1.7l-1.1-3.7c1.7-1,4.5-2,8.1-2c7.2,0,9.2,4.5,9.2,9.4v8.1c0,2,0.1,4,0.3,5.4H541.7z
				 M530.3,272.8c0-1.6,1.2-2.8,2.9-2.8c1.5,0,2.7,1.2,2.7,2.8c0,1.5-1.1,2.8-2.8,2.8C531.5,275.6,530.3,274.3,530.3,272.8z
				 M540.9,290.5c-4-0.1-7.8,0.8-7.8,4.2c0,2.2,1.4,3.2,3.2,3.2c2.2,0,3.9-1.5,4.4-3.1c0.1-0.4,0.2-0.9,0.2-1.2V290.5z M539.5,272.8
				c0-1.6,1.2-2.8,2.8-2.8c1.6,0,2.8,1.2,2.8,2.8c0,1.5-1.1,2.8-2.8,2.8C540.6,275.6,539.5,274.3,539.5,272.8z"/>
			<path id="XMLID_106_" d="M555.5,279.1l3.6,11.3c0.6,2,1.1,3.8,1.5,5.6h0.1c0.4-1.8,0.9-3.6,1.5-5.6l3.5-11.3h6l-8.5,22.3h-5.6
				l-8.3-22.3H555.5z"/>
			<path id="XMLID_108_" d="M578.6,291.8c0.1,4,3.3,5.8,6.9,5.8c2.6,0,4.5-0.4,6.2-1l0.8,3.9c-1.9,0.8-4.6,1.4-7.8,1.4
				c-7.3,0-11.5-4.5-11.5-11.3c0-6.2,3.8-12,10.9-12c7.3,0,9.6,6,9.6,10.9c0,1.1-0.1,1.9-0.2,2.4H578.6z M588.5,287.9
				c0-2.1-0.9-5.5-4.6-5.5c-3.5,0-5,3.2-5.2,5.5H588.5z"/>
			<path id="XMLID_111_" d="M598.3,285.7c0-2.6,0-4.7-0.2-6.7h5l0.3,3.3h0.1c1-1.7,3.4-3.9,7.1-3.9c3.9,0,7.9,2.5,7.9,9.6v13.3h-5.6
				v-12.6c0-3.2-1.2-5.6-4.3-5.6c-2.2,0-3.8,1.6-4.4,3.3c-0.2,0.5-0.2,1.2-0.2,1.8v13.1h-5.7V285.7z"/>
			<path id="XMLID_113_" d="M630.8,272.7v6.4h5.4v4.2h-5.4v9.9c0,2.7,0.7,4.1,2.9,4.1c1,0,1.7-0.1,2.2-0.3l0.1,4.3
				c-0.8,0.3-2.3,0.5-4.1,0.5c-2.1,0-3.8-0.7-4.9-1.8c-1.2-1.3-1.7-3.3-1.7-6.2v-10.5h-3.2v-4.2h3.2v-5L630.8,272.7z"/>
			<path id="XMLID_115_" d="M646.5,272.8c0,1.7-1.2,3-3.2,3c-1.9,0-3.1-1.3-3.1-3c0-1.7,1.3-3.1,3.2-3.1
				C645.2,269.8,646.4,271.1,646.5,272.8z M640.5,301.4v-22.3h5.7v22.3H640.5z"/>
			<path id="XMLID_118_" d="M673.4,290c0,8.2-5.8,11.9-11.5,11.9c-6.3,0-11.2-4.4-11.2-11.5c0-7.3,4.8-11.8,11.6-11.8
				C669,278.6,673.4,283.2,673.4,290z M656.6,290.3c0,4.3,2.1,7.6,5.6,7.6c3.2,0,5.5-3.2,5.5-7.7c0-3.5-1.6-7.5-5.4-7.5
				C658.2,282.7,656.6,286.5,656.6,290.3z"/>
			<path id="XMLID_121_" d="M678.1,285.7c0-2.6,0-4.7-0.2-6.7h5l0.3,3.3h0.1c1-1.7,3.4-3.9,7.1-3.9c3.9,0,7.9,2.5,7.9,9.6v13.3h-5.6
				v-12.6c0-3.2-1.2-5.6-4.3-5.6c-2.2,0-3.8,1.6-4.4,3.3c-0.2,0.5-0.2,1.2-0.2,1.8v13.1h-5.7V285.7z"/>
			<path id="XMLID_123_" d="M719.8,272.8c0,1.7-1.2,3-3.2,3c-1.9,0-3.1-1.3-3.1-3c0-1.7,1.3-3.1,3.2-3.1
				C718.6,269.8,719.8,271.1,719.8,272.8z M713.8,301.4v-22.3h5.7v22.3H713.8z"/>
			<path id="XMLID_126_" d="M725.3,296.2c1.3,0.8,3.7,1.6,5.7,1.6c2.5,0,3.6-1,3.6-2.5c0-1.5-0.9-2.3-3.7-3.3
				c-4.4-1.5-6.2-3.9-6.2-6.5c0-3.9,3.3-7,8.4-7c2.5,0,4.6,0.6,5.9,1.3l-1.1,4c-1-0.5-2.8-1.3-4.7-1.3c-2,0-3.1,1-3.1,2.3
				c0,1.4,1.1,2.1,3.9,3.1c4,1.5,5.9,3.5,6,6.8c0,4-3.2,7-9.1,7c-2.7,0-5.1-0.6-6.8-1.6L725.3,296.2z"/>
			<path id="XMLID_128_" d="M751.2,272.7v6.4h5.4v4.2h-5.4v9.9c0,2.7,0.7,4.1,2.9,4.1c1,0,1.7-0.1,2.2-0.3l0.1,4.3
				c-0.8,0.3-2.3,0.5-4.1,0.5c-2.1,0-3.8-0.7-4.9-1.8c-1.2-1.3-1.7-3.3-1.7-6.2v-10.5h-3.2v-4.2h3.2v-5L751.2,272.7z"/>
			<path id="XMLID_130_" d="M790.9,268.8v26.3c0,2.3,0.1,4.8,0.2,6.3h-5l-0.2-3.5h-0.1c-1.3,2.5-4,4-7.3,4c-5.3,0-9.5-4.5-9.5-11.4
				c0-7.5,4.6-11.9,10-11.9c3.1,0,5.3,1.3,6.3,2.9h0.1v-12.7H790.9z M785.3,288.4c0-0.5,0-1-0.1-1.5c-0.5-2.2-2.3-4-4.9-4
				c-3.6,0-5.6,3.2-5.6,7.4c0,4.1,2,7.1,5.6,7.1c2.3,0,4.3-1.6,4.9-4c0.1-0.5,0.2-1.1,0.2-1.7V288.4z"/>
			<path id="XMLID_133_" d="M803,272.8c0,1.7-1.2,3-3.2,3c-1.9,0-3.1-1.3-3.1-3c0-1.7,1.3-3.1,3.2-3.1
				C801.8,269.8,803,271.1,803,272.8z M797,301.4v-22.3h5.7v22.3H797z"/>
			<path id="XMLID_136_" d="M812.7,291.8c0.1,4,3.3,5.8,6.9,5.8c2.6,0,4.5-0.4,6.2-1l0.8,3.9c-1.9,0.8-4.6,1.4-7.8,1.4
				c-7.3,0-11.5-4.5-11.5-11.3c0-6.2,3.8-12,10.9-12c7.3,0,9.6,6,9.6,10.9c0,1.1-0.1,1.9-0.2,2.4H812.7z M822.5,287.9
				c0-2.1-0.9-5.5-4.6-5.5c-3.5,0-5,3.2-5.2,5.5H822.5z"/>
			<path id="XMLID_139_" d="M841.7,301.4c0.1-1.5,0.2-4,0.2-6.3v-26.3h5.6v13.3h0.1c1.4-2.2,3.8-3.6,7.2-3.6c5.5,0,9.4,4.5,9.3,11.3
				c0,8-5.1,12-10.1,12c-2.9,0-5.5-1.1-7.1-3.9h-0.1l-0.3,3.3H841.7z M847.6,292.2c0,0.5,0,0.9,0.1,1.3c0.6,2.2,2.6,3.9,5,3.9
				c3.5,0,5.7-2.8,5.7-7.3c0-3.9-1.9-7.2-5.6-7.2c-2.3,0-4.4,1.7-5,4.1c-0.1,0.4-0.2,0.9-0.2,1.5V292.2z"/>
			<path id="XMLID_142_" d="M872.8,291.8c0.1,4,3.3,5.8,6.9,5.8c2.6,0,4.5-0.4,6.2-1l0.8,3.9c-1.9,0.8-4.6,1.4-7.8,1.4
				c-7.3,0-11.5-4.5-11.5-11.3c0-6.2,3.8-12,10.9-12c7.3,0,9.6,6,9.6,10.9c0,1.1-0.1,1.9-0.2,2.4H872.8z M882.6,287.9
				c0-2.1-0.9-5.5-4.6-5.5c-3.5,0-5,3.2-5.2,5.5H882.6z"/>
			<path id="XMLID_145_" d="M892.2,296.2c1.3,0.8,3.7,1.6,5.7,1.6c2.5,0,3.6-1,3.6-2.5c0-1.5-0.9-2.3-3.7-3.3
				c-4.4-1.5-6.2-3.9-6.2-6.5c0-3.9,3.3-7,8.4-7c2.5,0,4.6,0.6,5.9,1.3l-1.1,4c-1-0.5-2.8-1.3-4.7-1.3c-2,0-3.1,1-3.1,2.3
				c0,1.4,1.1,2.1,3.9,3.1c4,1.5,5.9,3.5,6,6.8c0,4-3.2,7-9.1,7c-2.7,0-5.1-0.6-6.8-1.6L892.2,296.2z"/>
			<path id="XMLID_147_" d="M918,272.7v6.4h5.4v4.2H918v9.9c0,2.7,0.7,4.1,2.9,4.1c1,0,1.7-0.1,2.2-0.3l0.1,4.3
				c-0.8,0.3-2.3,0.5-4.1,0.5c-2.1,0-3.8-0.7-4.9-1.8c-1.2-1.3-1.7-3.3-1.7-6.2v-10.5h-3.2v-4.2h3.2v-5L918,272.7z"/>
			<path id="XMLID_149_" d="M931.4,291.8c0.1,4,3.3,5.8,6.9,5.8c2.6,0,4.5-0.4,6.2-1l0.8,3.9c-1.9,0.8-4.6,1.4-7.8,1.4
				c-7.3,0-11.5-4.5-11.5-11.3c0-6.2,3.8-12,10.9-12c7.3,0,9.6,6,9.6,10.9c0,1.1-0.1,1.9-0.2,2.4H931.4z M941.2,287.9
				c0-2.1-0.9-5.5-4.6-5.5c-3.5,0-5,3.2-5.2,5.5H941.2z"/>
			<path id="XMLID_152_" d="M966.5,270.5v12.4h13.1v-12.4h5.6v30.9h-5.6v-13.6h-13.1v13.6h-5.6v-30.9H966.5z"/>
			<path id="XMLID_154_" d="M997.7,272.8c0,1.7-1.2,3-3.2,3c-1.9,0-3.1-1.3-3.1-3c0-1.7,1.3-3.1,3.2-3.1
				C996.5,269.8,997.7,271.1,997.7,272.8z M991.7,301.4v-22.3h5.7v22.3H991.7z"/>
			<path id="XMLID_157_" d="M1003.4,268.8h5.7v32.6h-5.7V268.8z"/>
			<path id="XMLID_159_" d="M1015.9,301.4v-18.1h-3v-4.2h3v-1c0-2.9,0.8-5.8,2.7-7.6c1.7-1.6,3.9-2.2,5.8-2.2c1.5,0,2.7,0.2,3.6,0.5
				l-0.4,4.4c-0.6-0.2-1.4-0.4-2.4-0.4c-2.8,0-3.8,2.3-3.8,5.1v1.1h4.9v4.2h-4.9v18.1H1015.9z"/>
			<path id="XMLID_161_" d="M1033.4,291.8c0.1,4,3.3,5.8,6.9,5.8c2.6,0,4.5-0.4,6.2-1l0.8,3.9c-1.9,0.8-4.6,1.4-7.8,1.4
				c-7.3,0-11.5-4.5-11.5-11.3c0-6.2,3.8-12,10.9-12c7.3,0,9.6,6,9.6,10.9c0,1.1-0.1,1.9-0.2,2.4H1033.4z M1043.2,287.9
				c0-2.1-0.9-5.5-4.6-5.5c-3.5,0-5,3.2-5.2,5.5H1043.2z"/>
		</g>
	</g>
</g>
</svg>
