<?xml version="1.0" encoding="utf-8"?>
<!-- Generator: Adobe Illustrator 19.0.0, SVG Export Plug-In . SVG Version: 6.00 Build 0)  -->
<svg version="1.1" id="Ebene_1" xmlns="http://www.w3.org/2000/svg" xmlns:xlink="http://www.w3.org/1999/xlink" x="0px" y="0px"
	 viewBox="0 0 500 500" style="enable-background:new 0 0 500 500;" xml:space="preserve">
<style type="text/css">
	.st0{display:none;fill:#6DB52D;}
	.st1{opacity:0.6;}
	.st2{fill:#2B4E9D;}
	.st3{fill:#E52420;}
	.st4{display:none;fill:#FFFFFF;}
</style>
<polygon id="XMLID_2_" class="st0" points="260.6,144.4 240.6,144.4 240.6,124.4 250.5,124.4 260.6,124.4 "/>
<g id="XMLID_3_">
	<g id="XMLID_54_">
		<g id="XMLID_5_">
			<g id="XMLID_13_" class="st1">
				<g id="XMLID_22_">
					<path id="XMLID_25_" class="st2" d="M254.8,5.7l-0.2,0.1v19.8l207.1,72.7c-1.8,43.6-74,292.2-207.1,382.2V500
						c0.1,0.1,0.2,0.1,0.3,0.2c144.7-97.8,223.2-368,225.1-415.4L254.8,5.7z"/>
					<path id="XMLID_24_" class="st3" d="M40.5,98.2l214-72.8l0.1,0V5.7L22.2,84.8c1.9,47.3,88,317.2,232.5,415.2v-19.6
						C121.6,390.5,42.3,141.8,40.5,98.2z"/>
					<path id="XMLID_23_" class="st4" d="M40.5,98.2c1.8,43.6,81,292.2,214.1,382.2c133.1-90,205.4-338.6,207.1-382.2L254.7,25.5
						l-0.1,0L40.5,98.2z"/>
				</g>
				<g id="XMLID_14_">
					<path id="XMLID_17_" class="st2" d="M209,172.3h-91.6v91.6c101.2,0,183.2-82,183.2-183.2H209V172.3z"/>
					<path id="XMLID_15_" class="st3" d="M300.6,263.9h91.6v-91.6c-101.2,0-183.2,82-183.2,183.2h91.6V263.9z"/>
				</g>
			</g>
			<g id="XMLID_9_">
				<g id="XMLID_18_">
					<path id="XMLID_19_" class="st2" d="M254.9,0l-0.2,0.1v19.8l207.1,72.7c-1.8,43.6-74,292.2-207.1,382.2v19.6
						c0.1,0.1,0.2,0.1,0.3,0.2c144.7-97.8,223.2-368,225.1-415.4L254.9,0z"/>
					<path id="XMLID_20_" class="st3" d="M40.6,92.6l214-72.8l0.1,0V0.1L22.3,79.1c1.9,47.3,88,317.2,232.5,415.2v-19.6
						C121.6,384.8,42.4,136.2,40.6,92.6z"/>
					<path id="XMLID_21_" class="st4" d="M40.6,92.6c1.8,43.6,81,292.2,214.1,382.2c133.1-90,205.4-338.6,207.1-382.2L254.7,19.8
						l-0.1,0L40.6,92.6z"/>
				</g>
				<g id="XMLID_10_">
					<path id="XMLID_11_" class="st2" d="M209.1,166.7h-91.6v91.6c101.2,0,183.2-82,183.2-183.2h-91.6V166.7z"/>
					<path id="XMLID_12_" class="st3" d="M300.7,258.3h91.6v-91.6c-101.2,0-183.2,82-183.2,183.2h91.6V258.3z"/>
				</g>
			</g>
		</g>
	</g>
</g>
</svg>
